<?xml version="1.0" encoding="utf-8"?>
<!-- Generator: Adobe Illustrator 24.3.0, SVG Export Plug-In . SVG Version: 6.00 Build 0)  -->
<svg version="1.0" id="katman_1" xmlns="http://www.w3.org/2000/svg" xmlns:xlink="http://www.w3.org/1999/xlink" x="0px" y="0px"
	 viewBox="0 0 841.89 595.28" style="enable-background:new 0 0 841.89 595.28;" xml:space="preserve">
<style type="text/css">
	.st0{fill:#4B90CD;}
</style>
<path class="st0" d="M351.54,516.77l-39.52-67.9l-78.54-16.17l8.83-76.77l-49.93-58.5l49.93-57.98l-8.83-76.75l78.54-16.21
	l39.52-68.39l69.71,32.39l69.71-32.39l40.05,68.41l78.01,16.19l-8.83,76.77l49.93,57.96l-49.93,58.5l8.83,76.77l-78.01,16.17
	l-40.05,67.9l-69.71-32.39L351.54,516.77z M398.88,366.9l118.08-117.51l-23.4-21.42l-94.68,94.01l-49.4-51.69l-23.94,23.48
	C325.55,293.77,398.88,366.9,398.88,366.9z"/>
</svg>
